<svg width="259" height="49" viewBox="0 0 259 49" fill="none" xmlns="http://www.w3.org/2000/svg">
<path d="M9.84031 39C8.52031 40.88 7.78031 42.38 7.62031 43.5C7.50031 44.62 7.86031 45.44 8.70031 45.96C9.58031 46.44 10.8203 46.72 12.4203 46.8L12.1803 48C10.6603 47.92 9.28031 47.88 8.04031 47.88C6.84031 47.84 5.70031 47.82 4.62031 47.82C3.70031 47.82 2.92031 47.84 2.28031 47.88C1.64031 47.88 1.00031 47.92 0.360312 48L0.660312 46.8C1.30031 46.64 1.94031 46.36 2.58031 45.96C3.22031 45.52 3.92031 44.9 4.68031 44.1C5.40031 43.26 6.24031 42.16 7.20031 40.8L32.5203 5.22C32.8803 5.26 33.2603 5.28 33.6603 5.28C34.1003 5.28 34.5003 5.26 34.8603 5.22L37.2603 42.96C37.3803 44.4 37.7403 45.4 38.3403 45.96C38.9803 46.48 39.6003 46.76 40.2003 46.8L39.9603 48C39.0003 47.92 37.7603 47.88 36.2403 47.88C34.7603 47.84 33.3403 47.82 31.9803 47.82C30.3003 47.82 28.7003 47.84 27.1803 47.88C25.6603 47.88 24.4603 47.92 23.5803 48L23.8203 46.8C25.7403 46.72 27.1003 46.38 27.9003 45.78C28.7003 45.14 29.0603 43.8 28.9803 41.76L27.4203 13.44L28.9803 12L9.84031 39ZM15.1803 30.72H32.7003L32.2203 31.92H14.1003L15.1803 30.72ZM64.7122 18.96C63.8322 18.96 62.8522 19.54 61.7722 20.7C60.7322 21.86 59.6722 23.46 58.5922 25.5C57.5122 27.5 56.4922 29.76 55.5322 32.28C54.5722 34.8 53.7722 37.44 53.1322 40.2L54.2122 33.96C55.6522 29.72 57.0722 26.3 58.4722 23.7C59.8722 21.1 61.3122 19.2 62.7922 18C64.2722 16.8 65.8322 16.2 67.4722 16.2C69.7122 16.2 71.4322 16.96 72.6322 18.48C73.8722 20 74.4922 22.24 74.4922 25.2C74.4922 27.04 74.2322 29.02 73.7122 31.14C73.1922 33.26 72.4122 35.36 71.3722 37.44C70.3722 39.52 69.1322 41.44 67.6522 43.2C66.1722 44.92 64.4722 46.3 62.5522 47.34C60.6722 48.34 58.5522 48.84 56.1922 48.84C55.0322 48.84 53.9922 48.56 53.0722 48C52.1522 47.44 51.4922 46.66 51.0922 45.66L51.5722 44.64C52.0122 45.56 52.5122 46.22 53.0722 46.62C53.6722 47.02 54.3522 47.22 55.1122 47.22C56.3522 47.22 57.5522 46.72 58.7122 45.72C59.8722 44.68 60.9522 43.3 61.9522 41.58C62.9522 39.86 63.8322 37.96 64.5922 35.88C65.3522 33.76 65.9322 31.64 66.3322 29.52C66.7322 27.36 66.9322 25.34 66.9322 23.46C66.9322 21.86 66.7322 20.72 66.3322 20.04C65.9722 19.32 65.4322 18.96 64.7122 18.96ZM51.7522 45.6C50.5522 45.88 49.2922 46.34 47.9722 46.98C46.6922 47.58 45.4522 48.24 44.2522 48.96L43.3522 48.54C43.6322 47.98 43.8722 47.42 44.0722 46.86C44.2322 46.26 44.3922 45.66 44.5522 45.06L55.2322 7.98C55.5922 6.62 55.5322 5.62 55.0522 4.98C54.6122 4.34 53.4122 4.02 51.4522 4.02L51.8122 2.76C54.4522 2.72 56.7722 2.5 58.7722 2.1C60.8122 1.66 62.7522 1.06 64.5922 0.299999L51.7522 45.6ZM95.7458 17.4C94.7058 17.4 93.6458 17.94 92.5658 19.02C91.4858 20.06 90.4658 21.5 89.5058 23.34C88.5458 25.14 87.6658 27.16 86.8658 29.4C86.1058 31.64 85.5058 33.96 85.0658 36.36C84.6258 38.72 84.4058 40.98 84.4058 43.14C84.4058 44.74 84.6058 45.9 85.0058 46.62C85.4458 47.3 86.0858 47.64 86.9258 47.64C87.9258 47.64 88.9658 47.12 90.0458 46.08C91.1258 45.04 92.1458 43.64 93.1058 41.88C94.1058 40.08 94.9858 38.08 95.7458 35.88C96.5058 33.64 97.1058 31.32 97.5458 28.92C97.9858 26.52 98.2058 24.18 98.2058 21.9C98.2058 20.22 97.9858 19.06 97.5458 18.42C97.1458 17.74 96.5458 17.4 95.7458 17.4ZM77.3258 39.12C77.3258 37.32 77.5658 35.38 78.0458 33.3C78.5658 31.22 79.3258 29.18 80.3258 27.18C81.3258 25.14 82.5658 23.3 84.0458 21.66C85.5658 19.98 87.3258 18.66 89.3258 17.7C91.3258 16.7 93.5858 16.2 96.1058 16.2C98.9858 16.2 101.226 17.02 102.826 18.66C104.466 20.26 105.286 22.68 105.286 25.92C105.286 27.72 105.026 29.66 104.506 31.74C104.026 33.82 103.286 35.88 102.286 37.92C101.286 39.92 100.026 41.76 98.5058 43.44C97.0258 45.08 95.2858 46.4 93.2858 47.4C91.2858 48.36 89.0258 48.84 86.5058 48.84C83.6258 48.84 81.3658 48.02 79.7258 46.38C78.1258 44.74 77.3258 42.32 77.3258 39.12ZM131.063 27.06C129.543 31.34 128.123 34.88 126.803 37.68C125.483 40.48 124.163 42.7 122.843 44.34C121.563 45.98 120.243 47.14 118.883 47.82C117.523 48.5 116.083 48.84 114.563 48.84C112.883 48.84 111.603 48.46 110.723 47.7C109.883 46.94 109.423 45.9 109.343 44.58C109.263 43.22 109.523 41.62 110.123 39.78L115.943 22.14C116.343 20.94 116.443 20.1 116.243 19.62C116.043 19.14 115.643 18.9 115.043 18.9C114.443 18.9 113.803 19.24 113.123 19.92C112.483 20.6 111.783 21.98 111.023 24.06L110.063 26.76H108.923L110.423 22.38C111.023 20.7 111.743 19.42 112.583 18.54C113.463 17.66 114.383 17.06 115.343 16.74C116.343 16.38 117.303 16.2 118.223 16.2C119.983 16.2 121.243 16.6 122.003 17.4C122.803 18.16 123.203 19.24 123.203 20.64C123.243 22 122.943 23.58 122.303 25.38L116.843 41.88C115.883 44.76 116.163 46.2 117.683 46.2C118.523 46.2 119.443 45.74 120.443 44.82C121.443 43.86 122.463 42.52 123.503 40.8C124.583 39.04 125.643 37 126.683 34.68C127.763 32.36 128.783 29.84 129.743 27.12C130.743 24.4 131.643 21.54 132.443 18.54L131.063 27.06ZM132.923 42.9C132.643 43.9 132.523 44.7 132.563 45.3C132.603 45.86 132.963 46.14 133.643 46.14C134.403 46.14 135.103 45.76 135.743 45C136.423 44.2 137.103 42.86 137.783 40.98L138.803 38.16H139.943L138.383 42.66C137.823 44.26 137.103 45.52 136.223 46.44C135.383 47.32 134.463 47.94 133.463 48.3C132.503 48.66 131.543 48.84 130.583 48.84C129.623 48.84 128.803 48.66 128.123 48.3C127.443 47.98 126.943 47.52 126.623 46.92C126.223 46.2 126.043 45.32 126.083 44.28C126.163 43.24 126.403 41.96 126.803 40.44L132.803 17.04C134.243 17 135.603 16.92 136.883 16.8C138.163 16.68 139.343 16.48 140.423 16.2L132.923 42.9ZM166.158 17.04L165.978 18.24H145.878L146.178 17.04H166.158ZM151.578 42.9C151.258 44.02 151.298 44.84 151.698 45.36C152.138 45.88 152.718 46.14 153.438 46.14C154.278 46.14 155.118 45.74 155.958 44.94C156.838 44.14 157.638 42.74 158.358 40.74L159.258 38.28H160.398L159.198 41.88C158.358 44.36 157.198 46.14 155.718 47.22C154.238 48.3 152.478 48.84 150.438 48.84C148.638 48.84 147.258 48.44 146.298 47.64C145.378 46.84 144.818 45.76 144.618 44.4C144.458 43 144.638 41.42 145.158 39.66L154.218 8.04C155.658 8 156.998 7.92 158.238 7.8C159.518 7.68 160.718 7.48 161.838 7.2L151.578 42.9ZM223.97 5.7H228.05C229.77 5.7 231.39 5.68 232.91 5.64C234.47 5.6 235.83 5.56 236.99 5.52L236.69 6.72C235.33 6.76 234.27 6.92 233.51 7.2C232.75 7.44 232.15 7.92 231.71 8.64C231.31 9.32 230.91 10.4 230.51 11.88L222.59 41.64C222.23 43.08 222.07 44.16 222.11 44.88C222.19 45.6 222.55 46.08 223.19 46.32C223.83 46.56 224.81 46.72 226.13 46.8L225.89 48C224.77 47.92 223.43 47.88 221.87 47.88C220.35 47.84 218.73 47.82 217.01 47.82C215.21 47.82 213.51 47.84 211.91 47.88C210.31 47.88 209.01 47.92 208.01 48L208.25 46.8C209.65 46.72 210.71 46.56 211.43 46.32C212.19 46.08 212.79 45.6 213.23 44.88C213.67 44.16 214.07 43.08 214.43 41.64L223.13 9.3L198.23 48.3H196.91L192.35 10.62L184.43 40.56C184.11 41.84 183.97 42.94 184.01 43.86C184.05 44.78 184.43 45.48 185.15 45.96C185.91 46.44 187.13 46.72 188.81 46.8L188.51 48C188.07 47.96 187.47 47.94 186.71 47.94C185.95 47.9 185.15 47.88 184.31 47.88C183.51 47.84 182.75 47.82 182.03 47.82C181.03 47.82 180.01 47.84 178.97 47.88C177.93 47.88 177.07 47.92 176.39 48L176.63 46.8C178.03 46.72 179.13 46.44 179.93 45.96C180.73 45.48 181.37 44.78 181.85 43.86C182.37 42.94 182.79 41.84 183.11 40.56L190.73 11.88C191.13 10.4 191.29 9.32 191.21 8.64C191.13 7.92 190.77 7.44 190.13 7.2C189.53 6.92 188.55 6.76 187.19 6.72L187.49 5.52C188.33 5.56 189.39 5.6 190.67 5.64C191.99 5.68 193.35 5.7 194.75 5.7C195.71 5.7 196.67 5.68 197.63 5.64C198.59 5.6 199.43 5.56 200.15 5.52L203.51 37.8L223.97 5.7ZM238.716 34.8C240.596 34.08 242.316 33.34 243.876 32.58C245.476 31.78 246.816 30.94 247.896 30.06C249.376 28.74 250.576 27.2 251.496 25.44C252.416 23.64 252.876 21.68 252.876 19.56C252.876 18.64 252.796 18.04 252.636 17.76C252.476 17.48 252.236 17.34 251.916 17.34C250.996 17.34 249.996 17.78 248.916 18.66C247.836 19.54 246.776 20.76 245.736 22.32C244.696 23.84 243.736 25.56 242.856 27.48C242.016 29.4 241.336 31.42 240.816 33.54C240.296 35.66 240.036 37.76 240.036 39.84C240.036 41.96 240.436 43.46 241.236 44.34C242.076 45.18 243.176 45.6 244.536 45.6C245.696 45.6 247.076 45.22 248.676 44.46C250.276 43.7 251.856 42.32 253.416 40.32L254.376 40.8C253.576 42.12 252.516 43.4 251.196 44.64C249.876 45.88 248.356 46.9 246.636 47.7C244.956 48.46 243.096 48.84 241.056 48.84C239.376 48.84 237.856 48.52 236.496 47.88C235.136 47.24 234.076 46.3 233.316 45.06C232.556 43.78 232.176 42.22 232.176 40.38C232.176 38.42 232.516 36.34 233.196 34.14C233.876 31.9 234.836 29.72 236.076 27.6C237.356 25.48 238.856 23.56 240.576 21.84C242.336 20.12 244.276 18.76 246.396 17.76C248.516 16.72 250.796 16.2 253.236 16.2C254.836 16.2 256.176 16.58 257.256 17.34C258.336 18.06 258.876 19.18 258.876 20.7C258.876 22.26 258.436 23.72 257.556 25.08C256.676 26.44 255.476 27.68 253.956 28.8C252.476 29.92 250.836 30.92 249.036 31.8C247.276 32.68 245.496 33.44 243.696 34.08C241.896 34.72 240.216 35.24 238.656 35.64L238.716 34.8Z" fill="url(#paint0_linear_95_122)"/>
<defs>
<linearGradient id="paint0_linear_95_122" x1="132.5" y1="-17" x2="132.5" y2="63" gradientUnits="userSpaceOnUse">
<stop offset="0.3125" stop-color="#9E333A"/>
<stop offset="0.704861" stop-color="#CC7970" stop-opacity="0.963889"/>
</linearGradient>
</defs>
</svg>
