<svg width="219" height="42" viewBox="0 0 219 42" fill="none" xmlns="http://www.w3.org/2000/svg">
<path d="M20.3102 10.4C18.7902 10.4 17.2902 11.02 15.8102 12.26C14.3702 13.5 13.0502 15.2 11.8502 17.36C10.6902 19.48 9.75023 21.9 9.03023 24.62C8.35023 27.3 8.01023 30.08 8.01023 32.96C8.01023 35.04 8.41023 36.54 9.21023 37.46C10.0502 38.38 11.1302 38.84 12.4502 38.84C13.7702 38.84 15.1302 38.44 16.5302 37.64C17.9302 36.84 19.3302 35.4 20.7302 33.32L21.9302 33.8C21.1302 35.12 20.1102 36.4 18.8702 37.64C17.6302 38.88 16.1902 39.9 14.5502 40.7C12.9502 41.46 11.1702 41.84 9.21023 41.84C6.57023 41.84 4.41023 41.1 2.73023 39.62C1.05023 38.1 0.210234 35.82 0.210234 32.78C0.210234 30.82 0.490234 28.76 1.05023 26.6C1.65023 24.44 2.51023 22.34 3.63023 20.3C4.75023 18.22 6.11023 16.36 7.71023 14.72C9.31023 13.04 11.1302 11.7 13.1702 10.7C15.2102 9.7 17.4502 9.2 19.8902 9.2C21.9302 9.2 23.5902 9.72 24.8702 10.76C26.1902 11.8 26.8502 13.14 26.8502 14.78C26.8502 15.74 26.6102 16.68 26.1302 17.6C25.6902 18.52 25.0702 19.28 24.2702 19.88C23.4702 20.48 22.5502 20.78 21.5102 20.78C20.5902 20.78 19.8302 20.5 19.2302 19.94C18.6702 19.38 18.3902 18.64 18.3902 17.72C18.3902 16.24 18.9102 14.96 19.9502 13.88C21.0302 12.8 22.2302 12.1 23.5502 11.78C23.1902 11.38 22.7502 11.06 22.2302 10.82C21.7502 10.54 21.1102 10.4 20.3102 10.4ZM45.9977 10.4C44.9577 10.4 43.8977 10.94 42.8177 12.02C41.7377 13.06 40.7177 14.5 39.7577 16.34C38.7977 18.14 37.9177 20.16 37.1177 22.4C36.3577 24.64 35.7577 26.96 35.3177 29.36C34.8777 31.72 34.6577 33.98 34.6577 36.14C34.6577 37.74 34.8577 38.9 35.2577 39.62C35.6977 40.3 36.3377 40.64 37.1777 40.64C38.1777 40.64 39.2177 40.12 40.2977 39.08C41.3777 38.04 42.3977 36.64 43.3577 34.88C44.3577 33.08 45.2377 31.08 45.9977 28.88C46.7577 26.64 47.3577 24.32 47.7977 21.92C48.2377 19.52 48.4577 17.18 48.4577 14.9C48.4577 13.22 48.2377 12.06 47.7977 11.42C47.3977 10.74 46.7977 10.4 45.9977 10.4ZM27.5777 32.12C27.5777 30.32 27.8177 28.38 28.2977 26.3C28.8177 24.22 29.5777 22.18 30.5777 20.18C31.5777 18.14 32.8177 16.3 34.2977 14.66C35.8177 12.98 37.5777 11.66 39.5777 10.7C41.5777 9.7 43.8377 9.2 46.3577 9.2C49.2377 9.2 51.4777 10.02 53.0777 11.66C54.7177 13.26 55.5377 15.68 55.5377 18.92C55.5377 20.72 55.2777 22.66 54.7577 24.74C54.2777 26.82 53.5377 28.88 52.5377 30.92C51.5377 32.92 50.2777 34.76 48.7577 36.44C47.2777 38.08 45.5377 39.4 43.5377 40.4C41.5377 41.36 39.2777 41.84 36.7577 41.84C33.8777 41.84 31.6177 41.02 29.9777 39.38C28.3777 37.74 27.5777 35.32 27.5777 32.12ZM66.3152 41H58.9352L66.1952 15.14C66.3552 14.58 66.4752 14.06 66.5552 13.58C66.6352 13.1 66.5952 12.7 66.4352 12.38C66.3152 12.06 65.9752 11.9 65.4152 11.9C64.6552 11.9 63.9552 12.28 63.3152 13.04C62.7152 13.76 62.0552 15.1 61.3352 17.06L60.3152 19.88H59.1752L60.7352 15.38C61.5752 13.02 62.6552 11.4 63.9752 10.52C65.2952 9.64 66.7552 9.2 68.3552 9.2C69.6752 9.2 70.6752 9.46 71.3552 9.98C72.0752 10.5 72.5352 11.18 72.7352 12.02C72.9352 12.82 72.9752 13.72 72.8552 14.72C72.7352 15.68 72.5552 16.64 72.3152 17.6L66.3152 41ZM68.5352 30.08C70.0152 25.96 71.4352 22.56 72.7952 19.88C74.1552 17.2 75.4752 15.08 76.7552 13.52C78.0352 11.92 79.3552 10.8 80.7152 10.16C82.0752 9.52 83.4952 9.2 84.9752 9.2C86.9352 9.2 88.2952 9.64 89.0552 10.52C89.8552 11.36 90.2352 12.48 90.1952 13.88C90.1952 15.24 89.9352 16.7 89.4152 18.26L83.5352 35.9C83.1752 36.98 83.0752 37.8 83.2352 38.36C83.3952 38.88 83.7952 39.14 84.4352 39.14C85.0352 39.14 85.6552 38.8 86.2952 38.12C86.9752 37.44 87.6952 36.06 88.4552 33.98L89.4152 31.28H90.5552L89.0552 35.66C88.4952 37.34 87.7752 38.62 86.8952 39.5C86.0552 40.38 85.1352 40.98 84.1352 41.3C83.1752 41.66 82.2152 41.84 81.2552 41.84C80.2152 41.84 79.3152 41.66 78.5552 41.3C77.8352 40.98 77.2752 40.52 76.8752 39.92C76.3552 39.16 76.1352 38.18 76.2152 36.98C76.2952 35.78 76.6152 34.34 77.1752 32.66L82.6352 16.16C82.8352 15.52 82.9952 14.88 83.1152 14.24C83.2352 13.56 83.2152 13 83.0552 12.56C82.8952 12.08 82.4752 11.84 81.7952 11.84C80.9552 11.84 80.0352 12.32 79.0352 13.28C78.0352 14.2 76.9952 15.5 75.9152 17.18C74.8352 18.86 73.7552 20.82 72.6752 23.06C71.5952 25.3 70.5552 27.74 69.5552 30.38C68.5952 32.98 67.7352 35.68 66.9752 38.48L68.5352 30.08ZM116.937 10.04L116.757 11.24H96.6574L96.9574 10.04H116.937ZM102.357 35.9C102.037 37.02 102.077 37.84 102.477 38.36C102.917 38.88 103.497 39.14 104.217 39.14C105.057 39.14 105.897 38.74 106.737 37.94C107.617 37.14 108.417 35.74 109.137 33.74L110.037 31.28H111.177L109.977 34.88C109.137 37.36 107.977 39.14 106.497 40.22C105.017 41.3 103.257 41.84 101.217 41.84C99.4174 41.84 98.0374 41.44 97.0774 40.64C96.1574 39.84 95.5974 38.76 95.3974 37.4C95.2374 36 95.4174 34.42 95.9374 32.66L104.997 1.04C106.437 0.999998 107.777 0.919997 109.017 0.799999C110.297 0.679998 111.497 0.479998 112.617 0.2L102.357 35.9ZM123.877 39.08C124.597 39.08 125.417 38.66 126.337 37.82C127.257 36.94 128.197 35.72 129.157 34.16C130.117 32.6 131.037 30.74 131.917 28.58C132.797 26.42 133.557 24.06 134.197 21.5L132.937 27.98C131.777 31.38 130.537 34.1 129.217 36.14C127.937 38.18 126.577 39.64 125.137 40.52C123.737 41.4 122.277 41.84 120.757 41.84C118.597 41.84 116.997 41.18 115.957 39.86C114.917 38.5 114.397 36.7 114.397 34.46C114.397 32.38 114.737 30.2 115.417 27.92C116.097 25.6 117.037 23.34 118.237 21.14C119.477 18.9 120.877 16.9 122.437 15.14C123.997 13.34 125.657 11.9 127.417 10.82C129.177 9.74 130.937 9.2 132.697 9.2C134.057 9.2 135.097 9.78 135.817 10.94C136.537 12.06 136.717 13.78 136.357 16.1L135.697 16.46C135.977 14.78 135.897 13.46 135.457 12.5C135.057 11.54 134.377 11.06 133.417 11.06C132.497 11.06 131.517 11.54 130.477 12.5C129.477 13.46 128.477 14.76 127.477 16.4C126.477 18.04 125.557 19.9 124.717 21.98C123.917 24.06 123.277 26.22 122.797 28.46C122.317 30.7 122.077 32.88 122.077 35C122.077 36.48 122.217 37.54 122.497 38.18C122.817 38.78 123.277 39.08 123.877 39.08ZM137.377 10.04C138.817 10 140.157 9.92 141.397 9.8C142.677 9.68 143.897 9.48 145.057 9.2L137.317 35.84C137.157 36.32 137.037 36.82 136.957 37.34C136.917 37.82 136.957 38.24 137.077 38.6C137.237 38.92 137.577 39.08 138.097 39.08C138.737 39.08 139.397 38.74 140.077 38.06C140.757 37.38 141.457 36 142.177 33.92L143.077 31.22H144.217L142.717 35.6C142.157 37.24 141.457 38.52 140.617 39.44C139.777 40.32 138.877 40.94 137.917 41.3C136.997 41.66 136.077 41.84 135.157 41.84C133.237 41.84 131.877 41.24 131.077 40.04C130.557 39.16 130.357 38.08 130.477 36.8C130.597 35.52 130.857 34.14 131.257 32.66L137.377 10.04ZM167.849 10.4C166.329 10.4 164.829 11.02 163.349 12.26C161.909 13.5 160.589 15.2 159.389 17.36C158.229 19.48 157.289 21.9 156.569 24.62C155.889 27.3 155.549 30.08 155.549 32.96C155.549 35.04 155.949 36.54 156.749 37.46C157.589 38.38 158.669 38.84 159.989 38.84C161.309 38.84 162.669 38.44 164.069 37.64C165.469 36.84 166.869 35.4 168.269 33.32L169.469 33.8C168.669 35.12 167.649 36.4 166.409 37.64C165.169 38.88 163.729 39.9 162.089 40.7C160.489 41.46 158.709 41.84 156.749 41.84C154.109 41.84 151.949 41.1 150.269 39.62C148.589 38.1 147.749 35.82 147.749 32.78C147.749 30.82 148.029 28.76 148.589 26.6C149.189 24.44 150.049 22.34 151.169 20.3C152.289 18.22 153.649 16.36 155.249 14.72C156.849 13.04 158.669 11.7 160.709 10.7C162.749 9.7 164.989 9.2 167.429 9.2C169.469 9.2 171.129 9.72 172.409 10.76C173.729 11.8 174.389 13.14 174.389 14.78C174.389 15.74 174.149 16.68 173.669 17.6C173.229 18.52 172.609 19.28 171.809 19.88C171.009 20.48 170.089 20.78 169.049 20.78C168.129 20.78 167.369 20.5 166.769 19.94C166.209 19.38 165.929 18.64 165.929 17.72C165.929 16.24 166.449 14.96 167.489 13.88C168.569 12.8 169.769 12.1 171.089 11.78C170.729 11.38 170.289 11.06 169.769 10.82C169.289 10.54 168.649 10.4 167.849 10.4ZM197.797 10.04L197.617 11.24H177.517L177.817 10.04H197.797ZM183.217 35.9C182.897 37.02 182.937 37.84 183.337 38.36C183.777 38.88 184.357 39.14 185.077 39.14C185.917 39.14 186.757 38.74 187.597 37.94C188.477 37.14 189.277 35.74 189.997 33.74L190.897 31.28H192.037L190.837 34.88C189.997 37.36 188.837 39.14 187.357 40.22C185.877 41.3 184.117 41.84 182.077 41.84C180.277 41.84 178.897 41.44 177.937 40.64C177.017 39.84 176.457 38.76 176.257 37.4C176.097 36 176.277 34.42 176.797 32.66L185.857 1.04C187.297 0.999998 188.637 0.919997 189.877 0.799999C191.157 0.679998 192.357 0.479998 193.477 0.2L183.217 35.9ZM199.216 40.1C199.536 40.26 199.876 40.4 200.236 40.52C200.596 40.6 201.096 40.64 201.736 40.64C203.256 40.64 204.516 40.16 205.516 39.2C206.556 38.2 207.076 36.82 207.076 35.06C207.076 33.78 206.796 32.48 206.236 31.16C205.716 29.84 204.916 28.38 203.836 26.78C202.876 25.38 201.996 24 201.196 22.64C200.436 21.28 200.056 19.72 200.056 17.96C200.056 16.24 200.476 14.74 201.316 13.46C202.156 12.14 203.356 11.1 204.916 10.34C206.476 9.58 208.296 9.2 210.376 9.2C211.736 9.2 213.076 9.36 214.396 9.68C215.716 10 216.796 10.58 217.636 11.42C218.476 12.26 218.896 13.48 218.896 15.08C218.896 15.64 218.776 16.24 218.536 16.88C218.296 17.48 217.936 18 217.456 18.44C216.976 18.88 216.336 19.1 215.536 19.1C214.696 19.1 213.996 18.78 213.436 18.14C212.876 17.46 212.596 16.6 212.596 15.56C212.596 14.64 212.756 13.78 213.076 12.98C213.436 12.18 213.856 11.48 214.336 10.88C213.776 10.56 212.976 10.4 211.936 10.4C210.496 10.4 209.336 10.86 208.456 11.78C207.576 12.7 207.136 14 207.136 15.68C207.136 16.56 207.276 17.4 207.556 18.2C207.876 18.96 208.296 19.76 208.816 20.6C209.376 21.4 209.996 22.34 210.676 23.42C211.796 25.22 212.676 26.84 213.316 28.28C213.956 29.68 214.276 31.12 214.276 32.6C214.276 34.36 213.796 35.94 212.836 37.34C211.916 38.74 210.636 39.84 208.996 40.64C207.356 41.44 205.436 41.84 203.236 41.84C201.676 41.84 200.176 41.62 198.736 41.18C197.336 40.78 196.176 40.1 195.256 39.14C194.376 38.18 193.936 36.86 193.936 35.18C193.936 34.26 194.196 33.42 194.716 32.66C195.196 31.86 195.956 31.46 196.996 31.46C198.036 31.46 198.816 31.88 199.336 32.72C199.856 33.56 200.116 34.6 200.116 35.84C200.116 36.72 199.996 37.54 199.756 38.3C199.556 39.02 199.376 39.62 199.216 40.1Z" fill="url(#paint0_linear_102_129)"/>
<defs>
<linearGradient id="paint0_linear_102_129" x1="109.5" y1="-24" x2="109.5" y2="56" gradientUnits="userSpaceOnUse">
<stop offset="0.3125" stop-color="#9E333A"/>
<stop offset="0.704861" stop-color="#CC7970" stop-opacity="0.963889"/>
</linearGradient>
</defs>
</svg>
