<svg width="1440" height="3204" viewBox="0 0 1440 3204" fill="none" xmlns="http://www.w3.org/2000/svg">
<rect width="1440" height="3204" fill="url(#paint0_radial_60_210)"/>
<rect width="1440" height="3204" fill="url(#paint1_radial_60_210)" fill-opacity="0.1"/>
<rect width="1440" height="3204" fill="url(#paint2_radial_60_210)" fill-opacity="0.1"/>
<rect width="1440" height="3204" fill="url(#paint3_radial_60_210)" fill-opacity="0.2"/>
<g filter="url(#filter0_d_60_210)">
<path d="M598.5 3147L600.5 3165.76L613 3167.5L600.5 3169.24L598.5 3188L596.749 3169.24L584 3167.5L596.749 3165.76L598.5 3147Z" fill="#FBFBFB"/>
</g>
<g filter="url(#filter1_d_60_210)">
<path d="M855 3118L856.237 3123.76L862 3125L856.237 3126.24L855 3132L853.763 3126.24L848 3125L853.763 3123.76L855 3118Z" fill="#FBFBFB"/>
</g>
<g filter="url(#filter2_d_60_210)">
<path d="M848 3107L849.237 3112.76L855 3114L849.237 3115.24L848 3121L846.763 3115.24L841 3114L846.763 3112.76L848 3107Z" fill="#FBFBFB"/>
</g>
<g filter="url(#filter3_d_60_210)">
<path d="M754.5 3137C754.5 3141.98 750.777 3146.59 744.51 3149.99C738.263 3153.39 729.598 3155.5 720 3155.5C710.402 3155.5 701.737 3153.39 695.49 3149.99C689.223 3146.59 685.5 3141.98 685.5 3137C685.5 3132.02 689.223 3127.4 695.49 3124C701.737 3120.61 710.402 3118.5 720 3118.5C729.598 3118.5 738.263 3120.61 744.51 3124C750.777 3127.4 754.5 3132.02 754.5 3137Z" stroke="#FBFBFB"/>
<path d="M728.804 3137C728.804 3142.19 727.773 3146.86 726.13 3150.21C724.47 3153.6 722.272 3155.5 720 3155.5C717.728 3155.5 715.53 3153.6 713.87 3150.21C712.227 3146.86 711.196 3142.19 711.196 3137C711.196 3131.81 712.227 3127.14 713.87 3123.78C715.53 3120.39 717.728 3118.5 720 3118.5C722.272 3118.5 724.47 3120.39 726.13 3123.78C727.773 3127.14 728.804 3131.81 728.804 3137Z" stroke="#FBFBFB"/>
<path d="M723.487 3137C723.487 3142.22 723.01 3146.93 722.245 3150.32C721.862 3152.02 721.412 3153.37 720.93 3154.27C720.689 3154.72 720.452 3155.04 720.232 3155.24C720.014 3155.44 719.84 3155.5 719.705 3155.5C719.57 3155.5 719.395 3155.44 719.178 3155.24C718.957 3155.04 718.72 3154.72 718.479 3154.27C717.997 3153.37 717.547 3152.02 717.164 3150.32C716.399 3146.93 715.922 3142.22 715.922 3137C715.922 3131.78 716.399 3127.07 717.164 3123.67C717.547 3121.97 717.997 3120.63 718.479 3119.73C718.72 3119.27 718.957 3118.95 719.178 3118.75C719.395 3118.56 719.57 3118.5 719.705 3118.5C719.84 3118.5 720.014 3118.56 720.232 3118.75C720.452 3118.95 720.689 3119.27 720.93 3119.73C721.412 3120.63 721.862 3121.97 722.245 3123.67C723.01 3127.07 723.487 3131.78 723.487 3137Z" stroke="#FBFBFB"/>
<path d="M748.298 3137C748.298 3142.02 745.195 3146.63 740.045 3150.02C734.9 3153.39 727.762 3155.5 719.852 3155.5C711.943 3155.5 704.805 3153.39 699.659 3150.02C694.51 3146.63 691.407 3142.02 691.407 3137C691.407 3131.97 694.51 3127.36 699.659 3123.98C704.805 3120.6 711.943 3118.5 719.852 3118.5C727.762 3118.5 734.9 3120.6 740.045 3123.98C745.195 3127.36 748.298 3131.97 748.298 3137Z" stroke="#FBFBFB"/>
<path d="M743.572 3137C743.572 3147.12 733.387 3155.5 720.591 3155.5C707.795 3155.5 697.61 3147.12 697.61 3137C697.61 3126.87 707.795 3118.5 720.591 3118.5C733.387 3118.5 743.572 3126.87 743.572 3137Z" stroke="#FBFBFB"/>
<path d="M737.074 3137C737.074 3147.28 729.83 3155.5 721.034 3155.5C712.186 3155.5 703.517 3147.23 703.517 3137C703.517 3126.77 712.186 3118.5 721.034 3118.5C729.83 3118.5 737.074 3126.71 737.074 3137Z" stroke="#FBFBFB"/>
</g>
<g filter="url(#filter4_d_60_210)">
<path d="M720.5 3133.5C734.989 3133.5 748.102 3133.93 757.587 3134.62C762.332 3134.97 766.157 3135.38 768.789 3135.83C770.109 3136.06 771.107 3136.29 771.765 3136.53C772.082 3136.64 772.293 3136.74 772.419 3136.83C772.293 3136.92 772.08 3137.03 771.76 3137.15C771.101 3137.39 770.103 3137.64 768.784 3137.88C766.151 3138.37 762.327 3138.82 757.582 3139.21C748.098 3139.99 734.987 3140.5 720.5 3140.5C706.013 3140.5 692.902 3139.99 683.418 3139.21C678.673 3138.82 674.849 3138.37 672.216 3137.88C670.897 3137.64 669.899 3137.39 669.24 3137.15C668.92 3137.03 668.707 3136.92 668.581 3136.83C668.707 3136.74 668.918 3136.64 669.234 3136.53C669.893 3136.29 670.891 3136.06 672.211 3135.83C674.843 3135.38 678.668 3134.97 683.413 3134.62C692.898 3133.93 706.011 3133.5 720.5 3133.5ZM772.521 3136.92C772.521 3136.92 772.52 3136.92 772.519 3136.91C772.521 3136.92 772.521 3136.92 772.521 3136.92ZM772.517 3136.75C772.519 3136.74 772.52 3136.74 772.52 3136.74C772.52 3136.74 772.519 3136.74 772.517 3136.75ZM668.48 3136.74C668.48 3136.74 668.481 3136.74 668.483 3136.75C668.481 3136.74 668.48 3136.74 668.48 3136.74ZM668.481 3136.91C668.48 3136.92 668.479 3136.92 668.479 3136.92C668.479 3136.92 668.479 3136.92 668.481 3136.91Z" stroke="#FBFBFB" shape-rendering="crispEdges"/>
</g>
<defs>
<filter id="filter0_d_60_210" x="580" y="3147" width="37" height="49" filterUnits="userSpaceOnUse" color-interpolation-filters="sRGB">
<feFlood flood-opacity="0" result="BackgroundImageFix"/>
<feColorMatrix in="SourceAlpha" type="matrix" values="0 0 0 0 0 0 0 0 0 0 0 0 0 0 0 0 0 0 127 0" result="hardAlpha"/>
<feOffset dy="4"/>
<feGaussianBlur stdDeviation="2"/>
<feComposite in2="hardAlpha" operator="out"/>
<feColorMatrix type="matrix" values="0 0 0 0 0 0 0 0 0 0 0 0 0 0 0 0 0 0 0.25 0"/>
<feBlend mode="normal" in2="BackgroundImageFix" result="effect1_dropShadow_60_210"/>
<feBlend mode="normal" in="SourceGraphic" in2="effect1_dropShadow_60_210" result="shape"/>
</filter>
<filter id="filter1_d_60_210" x="844" y="3118" width="22" height="22" filterUnits="userSpaceOnUse" color-interpolation-filters="sRGB">
<feFlood flood-opacity="0" result="BackgroundImageFix"/>
<feColorMatrix in="SourceAlpha" type="matrix" values="0 0 0 0 0 0 0 0 0 0 0 0 0 0 0 0 0 0 127 0" result="hardAlpha"/>
<feOffset dy="4"/>
<feGaussianBlur stdDeviation="2"/>
<feComposite in2="hardAlpha" operator="out"/>
<feColorMatrix type="matrix" values="0 0 0 0 0 0 0 0 0 0 0 0 0 0 0 0 0 0 0.25 0"/>
<feBlend mode="normal" in2="BackgroundImageFix" result="effect1_dropShadow_60_210"/>
<feBlend mode="normal" in="SourceGraphic" in2="effect1_dropShadow_60_210" result="shape"/>
</filter>
<filter id="filter2_d_60_210" x="837" y="3107" width="22" height="22" filterUnits="userSpaceOnUse" color-interpolation-filters="sRGB">
<feFlood flood-opacity="0" result="BackgroundImageFix"/>
<feColorMatrix in="SourceAlpha" type="matrix" values="0 0 0 0 0 0 0 0 0 0 0 0 0 0 0 0 0 0 127 0" result="hardAlpha"/>
<feOffset dy="4"/>
<feGaussianBlur stdDeviation="2"/>
<feComposite in2="hardAlpha" operator="out"/>
<feColorMatrix type="matrix" values="0 0 0 0 0 0 0 0 0 0 0 0 0 0 0 0 0 0 0.25 0"/>
<feBlend mode="normal" in2="BackgroundImageFix" result="effect1_dropShadow_60_210"/>
<feBlend mode="normal" in="SourceGraphic" in2="effect1_dropShadow_60_210" result="shape"/>
</filter>
<filter id="filter3_d_60_210" x="681" y="3118" width="78" height="46" filterUnits="userSpaceOnUse" color-interpolation-filters="sRGB">
<feFlood flood-opacity="0" result="BackgroundImageFix"/>
<feColorMatrix in="SourceAlpha" type="matrix" values="0 0 0 0 0 0 0 0 0 0 0 0 0 0 0 0 0 0 127 0" result="hardAlpha"/>
<feOffset dy="4"/>
<feGaussianBlur stdDeviation="2"/>
<feComposite in2="hardAlpha" operator="out"/>
<feColorMatrix type="matrix" values="0 0 0 0 0 0 0 0 0 0 0 0 0 0 0 0 0 0 0.25 0"/>
<feBlend mode="normal" in2="BackgroundImageFix" result="effect1_dropShadow_60_210"/>
<feBlend mode="normal" in="SourceGraphic" in2="effect1_dropShadow_60_210" result="shape"/>
</filter>
<filter id="filter4_d_60_210" x="664" y="3133" width="113" height="16" filterUnits="userSpaceOnUse" color-interpolation-filters="sRGB">
<feFlood flood-opacity="0" result="BackgroundImageFix"/>
<feColorMatrix in="SourceAlpha" type="matrix" values="0 0 0 0 0 0 0 0 0 0 0 0 0 0 0 0 0 0 127 0" result="hardAlpha"/>
<feOffset dy="4"/>
<feGaussianBlur stdDeviation="2"/>
<feComposite in2="hardAlpha" operator="out"/>
<feColorMatrix type="matrix" values="0 0 0 0 0 0 0 0 0 0 0 0 0 0 0 0 0 0 0.25 0"/>
<feBlend mode="normal" in2="BackgroundImageFix" result="effect1_dropShadow_60_210"/>
<feBlend mode="normal" in="SourceGraphic" in2="effect1_dropShadow_60_210" result="shape"/>
</filter>
<radialGradient id="paint0_radial_60_210" cx="0" cy="0" r="1" gradientUnits="userSpaceOnUse" gradientTransform="translate(1386 525.135) rotate(90.4082) scale(491.251 494.007)">
<stop offset="0.309028" stop-color="#BD444C"/>
<stop offset="0.506944" stop-color="#C86D73"/>
<stop offset="1" stop-color="#ECE6DE"/>
</radialGradient>
<radialGradient id="paint1_radial_60_210" cx="0" cy="0" r="1" gradientUnits="userSpaceOnUse" gradientTransform="translate(720 2887.46) rotate(179.542) scale(326.51 243.766)">
<stop offset="0.246528" stop-color="#BD444C"/>
<stop offset="0.578125" stop-color="#C86D73"/>
<stop offset="1" stop-color="#ECE6DE"/>
</radialGradient>
<radialGradient id="paint2_radial_60_210" cx="0" cy="0" r="1" gradientUnits="userSpaceOnUse" gradientTransform="translate(57.0001 1870.04) rotate(-18.7972) scale(655.459 665.895)">
<stop offset="0.354937" stop-color="#9E333A"/>
<stop offset="0.710982" stop-color="#C86D73"/>
<stop offset="1" stop-color="#ECE6DE"/>
</radialGradient>
<radialGradient id="paint3_radial_60_210" cx="0" cy="0" r="1" gradientUnits="userSpaceOnUse" gradientTransform="translate(720 3135.5) rotate(0.485536) scale(236.008 66.0108)">
<stop offset="0.61101" stop-color="#C86D73"/>
<stop offset="0.659497" stop-color="#9E333A"/>
<stop offset="1" stop-color="#ECE5DE"/>
</radialGradient>
</defs>
</svg>
