<svg width="228" height="148" viewBox="0 0 228 148" fill="none" xmlns="http://www.w3.org/2000/svg">
<path d="M217.042 31.7017C217.578 32.8549 217.588 34.3323 216.925 36.1975C216.262 38.0671 214.952 40.2346 212.999 42.6606C209.095 47.5092 202.765 53.2134 194.455 59.4057C177.849 71.7801 153.511 85.9757 125.378 99.0414C97.2456 112.107 70.6976 121.545 50.5295 126.25C40.4373 128.604 31.9953 129.76 25.772 129.615C22.6582 129.542 20.1572 129.145 18.3006 128.445C16.4483 127.748 15.3259 126.787 14.7903 125.634C14.2547 124.481 14.2448 123.003 14.9069 121.138C15.5705 119.269 16.8801 117.101 18.8335 114.675C22.7375 109.826 29.0673 104.122 37.377 97.93C53.983 85.5556 78.3213 71.36 106.454 58.2943C134.587 45.2285 161.135 35.7908 181.303 31.0862C191.395 28.7319 199.837 27.5756 206.06 27.7208C209.174 27.7934 211.675 28.1911 213.532 28.8903C215.384 29.5878 216.506 30.5484 217.042 31.7017Z" stroke="white" stroke-width="2"/>
<path d="M213.042 21.7017C213.578 22.8549 213.588 24.3323 212.925 26.1975C212.262 28.0671 210.952 30.2346 208.999 32.6606C205.095 37.5092 198.765 43.2134 190.455 49.4057C173.849 61.7801 149.511 75.9757 121.378 89.0414C93.2456 102.107 66.6976 111.545 46.5295 116.25C36.4373 118.604 27.9953 119.76 21.772 119.615C18.6582 119.542 16.1572 119.145 14.3006 118.445C12.4483 117.748 11.3259 116.787 10.7903 115.634C10.2547 114.481 10.2448 113.003 10.9069 111.138C11.5705 109.269 12.8801 107.101 14.8335 104.675C18.7375 99.8264 25.0673 94.1222 33.377 87.93C49.983 75.5556 74.3213 61.36 102.454 48.2943C130.587 35.2285 157.135 25.7908 177.303 21.0862C187.395 18.7319 195.837 17.5756 202.06 17.7208C205.174 17.7934 207.675 18.1911 209.532 18.8903C211.384 19.5878 212.506 20.5484 213.042 21.7017Z" stroke="white" stroke-width="2"/>
<path d="M181 74L183.15 101.5L197 103.5L183.15 105L181 133L178.85 105L165 103.5L178.85 101.5L181 74Z" fill="white"/>
<path d="M197.5 113L198.911 125.585L208 126.5L198.911 127.186L197.5 140L196.089 127.186L187 126.5L196.089 125.585L197.5 113Z" fill="white"/>
</svg>
