<svg width="399" height="59" viewBox="0 0 399 59" fill="none" xmlns="http://www.w3.org/2000/svg">
<path d="M38.6691 5.1C38.2691 6.14 37.7291 7.66 37.0491 9.66C36.4091 11.62 35.7691 14.18 35.1291 17.34H33.9291C34.0491 16.78 34.1291 16.2 34.1691 15.6C34.2491 15 34.2891 14.46 34.2891 13.98C34.2891 12.42 33.9691 11.06 33.3291 9.9C32.7291 8.7 31.7891 7.76 30.5091 7.08C29.2691 6.36 27.6691 6 25.7091 6C23.5891 6 21.7891 6.56 20.3091 7.68C18.8291 8.76 18.0891 10.5 18.0891 12.9C18.0891 14.38 18.4291 15.78 19.1091 17.1C19.8291 18.38 20.7291 19.64 21.8091 20.88C22.9291 22.08 24.1091 23.3 25.3491 24.54C26.5891 25.74 27.7491 26.98 28.8291 28.26C29.9091 29.54 30.7891 30.9 31.4691 32.34C32.1891 33.74 32.5491 35.28 32.5491 36.96C32.5491 39.08 32.0291 40.9 30.9891 42.42C29.9891 43.9 28.6891 45.12 27.0891 46.08C25.4891 47 23.7491 47.68 21.8691 48.12C20.0291 48.6 18.2291 48.84 16.4691 48.84C14.6691 48.84 13.1691 48.7 11.9691 48.42C10.8091 48.18 9.82914 47.84 9.02914 47.4C8.22914 46.96 7.44914 46.52 6.68914 46.08C6.28914 45.76 5.88914 45.54 5.48914 45.42C5.12914 45.26 4.82914 45.18 4.58914 45.18C4.06914 45.18 3.62914 45.44 3.26914 45.96C2.94914 46.44 2.54914 47.26 2.06914 48.42H0.869141C1.22914 47.54 1.60914 46.52 2.00914 45.36C2.40914 44.2 2.84914 42.72 3.32914 40.92C3.80914 39.08 4.34914 36.78 4.94914 34.02H6.14914C5.98914 34.78 5.84914 35.58 5.72914 36.42C5.60914 37.22 5.56914 38.02 5.60914 38.82C5.72914 41.62 6.58914 43.78 8.18914 45.3C9.82914 46.82 12.2291 47.58 15.3891 47.58C18.0691 47.58 20.0891 47.02 21.4491 45.9C22.8091 44.74 23.4891 43.06 23.4891 40.86C23.4891 39.18 23.1691 37.66 22.5291 36.3C21.9291 34.9 21.1291 33.6 20.1291 32.4C19.1291 31.2 18.0691 30.02 16.9491 28.86C15.8291 27.7 14.7691 26.52 13.7691 25.32C12.7691 24.08 11.9491 22.76 11.3091 21.36C10.6691 19.92 10.3491 18.32 10.3491 16.56C10.3491 14.56 10.7691 12.82 11.6091 11.34C12.4891 9.86 13.6091 8.64 14.9691 7.68C16.3691 6.68 17.9091 5.94 19.5891 5.46C21.2691 4.94 22.9291 4.68 24.5691 4.68C26.7291 4.68 28.5091 4.94 29.9091 5.46C31.3091 5.98 32.5091 6.6 33.5091 7.32C33.9491 7.6 34.3291 7.84 34.6491 8.04C35.0091 8.2 35.2891 8.28 35.4891 8.28C36.0491 8.28 36.7091 7.22 37.4691 5.1H38.6691ZM46.5995 46.08C47.3195 46.08 48.1395 45.66 49.0595 44.82C49.9795 43.94 50.9195 42.72 51.8795 41.16C52.8395 39.6 53.7595 37.74 54.6395 35.58C55.5195 33.42 56.2795 31.06 56.9195 28.5L55.6595 34.98C54.4995 38.38 53.2595 41.1 51.9395 43.14C50.6595 45.18 49.2995 46.64 47.8595 47.52C46.4595 48.4 44.9995 48.84 43.4795 48.84C41.3195 48.84 39.7195 48.18 38.6795 46.86C37.6395 45.5 37.1195 43.7 37.1195 41.46C37.1195 39.38 37.4595 37.2 38.1395 34.92C38.8195 32.6 39.7595 30.34 40.9595 28.14C42.1995 25.9 43.5995 23.9 45.1595 22.14C46.7195 20.34 48.3795 18.9 50.1395 17.82C51.8995 16.74 53.6595 16.2 55.4195 16.2C56.7795 16.2 57.8195 16.78 58.5395 17.94C59.2595 19.06 59.4395 20.78 59.0795 23.1L58.4195 23.46C58.6995 21.78 58.6195 20.46 58.1795 19.5C57.7795 18.54 57.0995 18.06 56.1395 18.06C55.2195 18.06 54.2395 18.54 53.1995 19.5C52.1995 20.46 51.1995 21.76 50.1995 23.4C49.1995 25.04 48.2795 26.9 47.4395 28.98C46.6395 31.06 45.9995 33.22 45.5195 35.46C45.0395 37.7 44.7995 39.88 44.7995 42C44.7995 43.48 44.9395 44.54 45.2195 45.18C45.5395 45.78 45.9995 46.08 46.5995 46.08ZM60.0995 17.04C61.5395 17 62.8795 16.92 64.1195 16.8C65.3995 16.68 66.6195 16.48 67.7795 16.2L60.0395 42.84C59.8795 43.32 59.7595 43.82 59.6795 44.34C59.6395 44.82 59.6795 45.24 59.7995 45.6C59.9595 45.92 60.2995 46.08 60.8195 46.08C61.4595 46.08 62.1195 45.74 62.7995 45.06C63.4795 44.38 64.1795 43 64.8995 40.92L65.7995 38.22H66.9395L65.4395 42.6C64.8795 44.24 64.1795 45.52 63.3395 46.44C62.4995 47.32 61.5995 47.94 60.6395 48.3C59.7195 48.66 58.7995 48.84 57.8795 48.84C55.9595 48.84 54.5995 48.24 53.7995 47.04C53.2795 46.16 53.0795 45.08 53.1995 43.8C53.3195 42.52 53.5795 41.14 53.9795 39.66L60.0995 17.04ZM76.232 48H68.852L80.732 7.98C81.132 6.62 81.072 5.62 80.552 4.98C80.072 4.34 78.852 4.02 76.892 4.02L77.312 2.76C79.952 2.72 82.292 2.5 84.332 2.1C86.412 1.66 88.372 1.06 90.212 0.299999L76.232 48ZM92.192 43.68C92.032 44.6 92.032 45.24 92.192 45.6C92.352 45.96 92.692 46.14 93.212 46.14C93.852 46.14 94.492 45.8 95.132 45.12C95.772 44.4 96.452 43.02 97.172 40.98L98.072 38.28H99.212L97.772 42.66C97.212 44.3 96.492 45.56 95.612 46.44C94.772 47.32 93.832 47.94 92.792 48.3C91.752 48.66 90.712 48.84 89.672 48.84C87.912 48.84 86.612 48.3 85.772 47.22C84.932 46.14 84.752 44.5 85.232 42.3L86.312 37.5C86.832 35.3 86.672 33.7 85.832 32.7C84.992 31.7 83.172 31.08 80.372 30.84V30.6C82.052 30.48 83.732 30.48 85.412 30.6C87.092 30.72 88.592 31.08 89.912 31.68C91.232 32.24 92.212 33.08 92.852 34.2C93.492 35.32 93.612 36.8 93.212 38.64L92.192 43.68ZM95.852 17.4C95.332 17.4 94.872 17.48 94.472 17.64C94.112 17.8 93.752 18.02 93.392 18.3C92.672 18.9 92.072 19.72 91.592 20.76C91.112 21.76 90.632 22.84 90.152 24C89.712 25.16 89.132 26.26 88.412 27.3C87.732 28.34 86.812 29.2 85.652 29.88C84.492 30.52 82.972 30.82 81.092 30.78L80.492 30.84L80.612 30.18C82.452 30.06 83.912 29.66 84.992 28.98C86.112 28.3 86.992 27.46 87.632 26.46C88.272 25.42 88.792 24.34 89.192 23.22C89.632 22.1 90.092 21.04 90.572 20.04C91.052 19.04 91.692 18.22 92.492 17.58C93.172 17.02 93.832 16.66 94.472 16.5C95.112 16.3 95.692 16.2 96.212 16.2C97.972 16.2 99.232 16.68 99.992 17.64C100.752 18.6 101.112 19.74 101.072 21.06C101.072 21.86 100.892 22.62 100.532 23.34C100.172 24.06 99.652 24.66 98.972 25.14C98.292 25.58 97.492 25.8 96.572 25.8C95.412 25.8 94.552 25.48 93.992 24.84C93.472 24.16 93.212 23.4 93.212 22.56C93.252 21.6 93.592 20.7 94.232 19.86C94.912 18.98 95.672 18.26 96.512 17.7C96.432 17.62 96.332 17.56 96.212 17.52C96.092 17.44 95.972 17.4 95.852 17.4ZM122.974 17.4C121.454 17.4 119.954 18.02 118.474 19.26C117.034 20.5 115.714 22.2 114.514 24.36C113.354 26.48 112.414 28.9 111.694 31.62C111.014 34.3 110.674 37.08 110.674 39.96C110.674 42.04 111.074 43.54 111.874 44.46C112.714 45.38 113.794 45.84 115.114 45.84C116.434 45.84 117.794 45.44 119.194 44.64C120.594 43.84 121.994 42.4 123.394 40.32L124.594 40.8C123.794 42.12 122.774 43.4 121.534 44.64C120.294 45.88 118.854 46.9 117.214 47.7C115.614 48.46 113.834 48.84 111.874 48.84C109.234 48.84 107.074 48.1 105.394 46.62C103.714 45.1 102.874 42.82 102.874 39.78C102.874 37.82 103.154 35.76 103.714 33.6C104.314 31.44 105.174 29.34 106.294 27.3C107.414 25.22 108.774 23.36 110.374 21.72C111.974 20.04 113.794 18.7 115.834 17.7C117.874 16.7 120.114 16.2 122.554 16.2C124.594 16.2 126.254 16.72 127.534 17.76C128.854 18.8 129.514 20.14 129.514 21.78C129.514 22.74 129.274 23.68 128.794 24.6C128.354 25.52 127.734 26.28 126.934 26.88C126.134 27.48 125.214 27.78 124.174 27.78C123.254 27.78 122.494 27.5 121.894 26.94C121.334 26.38 121.054 25.64 121.054 24.72C121.054 23.24 121.574 21.96 122.614 20.88C123.694 19.8 124.894 19.1 126.214 18.78C125.854 18.38 125.414 18.06 124.894 17.82C124.414 17.54 123.774 17.4 122.974 17.4ZM135.822 48H128.442L140.322 7.98C140.722 6.62 140.662 5.62 140.142 4.98C139.662 4.34 138.442 4.02 136.482 4.02L136.902 2.76C139.542 2.72 141.882 2.5 143.922 2.1C146.002 1.66 147.962 1.06 149.802 0.299999L135.822 48ZM137.382 39.24C138.942 34.76 140.402 31.04 141.762 28.08C143.162 25.08 144.522 22.72 145.842 21C147.202 19.24 148.582 18 149.982 17.28C151.422 16.56 152.922 16.2 154.482 16.2C156.402 16.2 157.762 16.64 158.562 17.52C159.362 18.36 159.742 19.48 159.702 20.88C159.702 22.28 159.442 23.74 158.922 25.26L153.042 42.9C152.682 43.98 152.562 44.8 152.682 45.36C152.842 45.88 153.242 46.14 153.882 46.14C154.482 46.14 155.122 45.8 155.802 45.12C156.482 44.44 157.202 43.06 157.962 40.98L158.922 38.28H160.062L158.562 42.66C158.002 44.34 157.282 45.62 156.402 46.5C155.562 47.38 154.642 47.98 153.642 48.3C152.682 48.66 151.722 48.84 150.762 48.84C148.962 48.84 147.662 48.44 146.862 47.64C146.102 46.84 145.742 45.74 145.782 44.34C145.822 42.94 146.102 41.38 146.622 39.66L152.142 23.16C152.342 22.52 152.502 21.86 152.622 21.18C152.742 20.5 152.722 19.94 152.562 19.5C152.402 19.06 151.982 18.84 151.302 18.84C150.422 18.84 149.462 19.34 148.422 20.34C147.422 21.3 146.362 22.66 145.242 24.42C144.122 26.18 143.002 28.26 141.882 30.66C140.802 33.02 139.762 35.6 138.762 38.4C137.762 41.2 136.842 44.14 136.002 47.22L137.382 39.24ZM169.279 48H161.899L173.779 7.98C174.179 6.62 174.119 5.62 173.599 4.98C173.119 4.34 171.899 4.02 169.939 4.02L170.359 2.76C172.999 2.72 175.339 2.5 177.379 2.1C179.459 1.66 181.419 1.06 183.259 0.299999L169.279 48ZM170.839 39.24C172.399 34.76 173.859 31.04 175.219 28.08C176.619 25.08 177.979 22.72 179.299 21C180.659 19.24 182.039 18 183.439 17.28C184.879 16.56 186.379 16.2 187.939 16.2C189.859 16.2 191.219 16.64 192.019 17.52C192.819 18.36 193.199 19.48 193.159 20.88C193.159 22.28 192.899 23.74 192.379 25.26L186.499 42.9C186.139 43.98 186.019 44.8 186.139 45.36C186.299 45.88 186.699 46.14 187.339 46.14C187.939 46.14 188.579 45.8 189.259 45.12C189.939 44.44 190.659 43.06 191.419 40.98L192.379 38.28H193.519L192.019 42.66C191.459 44.34 190.739 45.62 189.859 46.5C189.019 47.38 188.099 47.98 187.099 48.3C186.139 48.66 185.179 48.84 184.219 48.84C182.419 48.84 181.119 48.44 180.319 47.64C179.559 46.84 179.199 45.74 179.239 44.34C179.279 42.94 179.559 41.38 180.079 39.66L185.599 23.16C185.799 22.52 185.959 21.86 186.079 21.18C186.199 20.5 186.179 19.94 186.019 19.5C185.859 19.06 185.439 18.84 184.759 18.84C183.879 18.84 182.919 19.34 181.879 20.34C180.879 21.3 179.819 22.66 178.699 24.42C177.579 26.18 176.459 28.26 175.339 30.66C174.259 33.02 173.219 35.6 172.219 38.4C171.219 41.2 170.299 44.14 169.459 47.22L170.839 39.24ZM207.116 6.72C207.236 5.24 207.836 4.06 208.916 3.18C209.996 2.3 211.256 1.86 212.696 1.86C214.016 1.86 215.016 2.24 215.696 3C216.416 3.72 216.716 4.66 216.596 5.82C216.476 7.18 215.876 8.32 214.796 9.24C213.716 10.16 212.456 10.62 211.016 10.62C209.696 10.62 208.676 10.26 207.956 9.54C207.276 8.78 206.996 7.84 207.116 6.72ZM205.016 22.14C205.736 19.98 205.496 18.9 204.296 18.9C203.496 18.9 202.776 19.32 202.136 20.16C201.496 20.96 200.816 22.26 200.096 24.06L199.076 26.88H197.936L199.496 22.38C200.096 20.78 200.816 19.54 201.656 18.66C202.496 17.74 203.436 17.1 204.476 16.74C205.516 16.38 206.536 16.2 207.536 16.2C208.936 16.2 209.996 16.46 210.716 16.98C211.436 17.5 211.916 18.18 212.156 19.02C212.396 19.86 212.456 20.78 212.336 21.78C212.216 22.74 211.996 23.68 211.676 24.6L205.316 42.9C204.956 43.98 204.856 44.8 205.016 45.36C205.176 45.88 205.556 46.14 206.156 46.14C206.796 46.14 207.436 45.8 208.076 45.12C208.756 44.4 209.476 43.02 210.236 40.98L211.256 38.28H212.396L210.896 42.66C210.296 44.26 209.576 45.52 208.736 46.44C207.896 47.32 206.976 47.94 205.976 48.3C204.976 48.66 203.996 48.84 203.036 48.84C201.276 48.84 199.996 48.46 199.196 47.7C198.396 46.9 197.996 45.82 197.996 44.46C197.996 43.06 198.316 41.46 198.956 39.66L205.016 22.14ZM275.113 39.24C276.633 34.8 278.073 31.1 279.433 28.14C280.793 25.18 282.153 22.84 283.513 21.12C284.873 19.36 286.273 18.1 287.713 17.34C289.193 16.58 290.773 16.2 292.453 16.2C294.173 16.2 295.413 16.6 296.173 17.4C296.973 18.2 297.393 19.3 297.433 20.7C297.473 22.06 297.233 23.58 296.713 25.26L290.833 42.9C290.633 43.46 290.493 44 290.413 44.52C290.373 45 290.453 45.4 290.653 45.72C290.853 46 291.193 46.14 291.673 46.14C292.273 46.14 292.913 45.8 293.593 45.12C294.273 44.44 294.993 43.06 295.753 40.98L296.713 38.28H297.853L296.353 42.66C295.793 44.34 295.073 45.62 294.193 46.5C293.313 47.38 292.373 47.98 291.373 48.3C290.413 48.66 289.473 48.84 288.553 48.84C286.873 48.84 285.613 48.48 284.773 47.76C283.973 47.04 283.553 45.98 283.513 44.58C283.513 43.18 283.813 41.54 284.413 39.66L289.933 23.16C290.173 22.44 290.333 21.76 290.413 21.12C290.533 20.44 290.493 19.9 290.293 19.5C290.133 19.06 289.713 18.84 289.033 18.84C287.953 18.84 286.773 19.5 285.493 20.82C284.213 22.14 282.893 24.04 281.533 26.52C280.213 28.96 278.893 31.92 277.573 35.4C276.253 38.88 274.993 42.82 273.793 47.22L275.113 39.24ZM278.953 1.74C280.393 1.62 281.753 1.46 283.033 1.26C284.353 1.02 285.573 0.699999 286.693 0.299999L273.613 48C273.613 48 273.353 48 272.833 48C272.353 48 271.733 48 270.973 48C270.253 48 269.533 48 268.813 48C268.093 48 267.473 48 266.953 48C266.473 48 266.233 48 266.233 48L278.953 1.74ZM254.893 6.66C254.893 6.66 255.153 6.68 255.673 6.72C256.193 6.76 256.853 6.82 257.653 6.9C258.453 6.98 259.253 7.08 260.053 7.2C260.853 7.28 261.513 7.36 262.033 7.44C262.553 7.48 262.813 7.5 262.813 7.5L253.933 41.04C253.533 42.52 253.393 43.66 253.513 44.46C253.633 45.26 254.073 45.84 254.833 46.2C255.593 46.52 256.793 46.72 258.433 46.8L258.193 48C256.993 47.92 255.453 47.88 253.573 47.88C251.733 47.84 249.813 47.82 247.813 47.82C245.853 47.82 243.973 47.84 242.173 47.88C240.373 47.88 238.933 47.92 237.853 48L238.093 46.8C239.773 46.72 241.093 46.52 242.053 46.2C243.013 45.84 243.753 45.26 244.273 44.46C244.833 43.62 245.313 42.48 245.713 41.04L254.893 6.66ZM279.733 6.66C278.333 7.46 276.813 8.02 275.173 8.34C273.573 8.62 271.733 8.76 269.653 8.76C267.893 8.76 266.073 8.66 264.193 8.46C262.353 8.22 260.493 7.96 258.613 7.68C256.733 7.4 254.873 7.16 253.033 6.96C251.233 6.72 249.513 6.6 247.873 6.6C246.553 6.6 245.253 6.68 243.973 6.84C242.733 6.96 241.773 7.22 241.093 7.62C241.893 7.94 242.553 8.5 243.073 9.3C243.593 10.1 243.853 11.02 243.853 12.06C243.853 13.22 243.473 14.26 242.713 15.18C241.993 16.06 240.993 16.5 239.713 16.5C238.513 16.5 237.593 16.1 236.953 15.3C236.313 14.5 235.993 13.54 235.993 12.42C235.993 11.5 236.233 10.54 236.713 9.54C237.233 8.5 238.213 7.62 239.653 6.9C240.573 6.46 241.553 6.14 242.593 5.94C243.673 5.74 244.673 5.62 245.593 5.58C246.513 5.54 247.213 5.52 247.693 5.52C250.413 5.52 253.013 5.7 255.493 6.06C258.013 6.38 260.473 6.72 262.873 7.08C265.273 7.4 267.693 7.56 270.133 7.56C272.253 7.56 273.973 7.42 275.293 7.14C276.653 6.82 278.033 6.3 279.433 5.58L279.733 6.66ZM310.271 46.08C310.991 46.08 311.811 45.66 312.731 44.82C313.651 43.94 314.591 42.72 315.551 41.16C316.511 39.6 317.431 37.74 318.311 35.58C319.191 33.42 319.951 31.06 320.591 28.5L319.331 34.98C318.171 38.38 316.931 41.1 315.611 43.14C314.331 45.18 312.971 46.64 311.531 47.52C310.131 48.4 308.671 48.84 307.151 48.84C304.991 48.84 303.391 48.18 302.351 46.86C301.311 45.5 300.791 43.7 300.791 41.46C300.791 39.38 301.131 37.2 301.811 34.92C302.491 32.6 303.431 30.34 304.631 28.14C305.871 25.9 307.271 23.9 308.831 22.14C310.391 20.34 312.051 18.9 313.811 17.82C315.571 16.74 317.331 16.2 319.091 16.2C320.451 16.2 321.491 16.78 322.211 17.94C322.931 19.06 323.111 20.78 322.751 23.1L322.091 23.46C322.371 21.78 322.291 20.46 321.851 19.5C321.451 18.54 320.771 18.06 319.811 18.06C318.891 18.06 317.911 18.54 316.871 19.5C315.871 20.46 314.871 21.76 313.871 23.4C312.871 25.04 311.951 26.9 311.111 28.98C310.311 31.06 309.671 33.22 309.191 35.46C308.711 37.7 308.471 39.88 308.471 42C308.471 43.48 308.611 44.54 308.891 45.18C309.211 45.78 309.671 46.08 310.271 46.08ZM323.771 17.04C325.211 17 326.551 16.92 327.791 16.8C329.071 16.68 330.291 16.48 331.451 16.2L323.711 42.84C323.551 43.32 323.431 43.82 323.351 44.34C323.311 44.82 323.351 45.24 323.471 45.6C323.631 45.92 323.971 46.08 324.491 46.08C325.131 46.08 325.791 45.74 326.471 45.06C327.151 44.38 327.851 43 328.571 40.92L329.471 38.22H330.611L329.111 42.6C328.551 44.24 327.851 45.52 327.011 46.44C326.171 47.32 325.271 47.94 324.311 48.3C323.391 48.66 322.471 48.84 321.551 48.84C319.631 48.84 318.271 48.24 317.471 47.04C316.951 46.16 316.751 45.08 316.871 43.8C316.991 42.52 317.251 41.14 317.651 39.66L323.771 17.04ZM355.984 18.96C355.104 18.96 354.124 19.54 353.044 20.7C352.004 21.86 350.944 23.46 349.864 25.5C348.784 27.5 347.764 29.76 346.804 32.28C345.884 34.8 345.084 37.44 344.404 40.2L345.544 33.96C346.944 29.72 348.344 26.3 349.744 23.7C351.144 21.1 352.584 19.2 354.064 18C355.544 16.8 357.124 16.2 358.804 16.2C361.044 16.2 362.764 16.96 363.964 18.48C365.204 20 365.824 22.24 365.824 25.2C365.824 27.04 365.564 29.02 365.044 31.14C364.524 33.26 363.764 35.36 362.764 37.44C361.804 39.52 360.604 41.44 359.164 43.2C357.724 44.92 356.064 46.3 354.184 47.34C352.344 48.34 350.284 48.84 348.004 48.84C346.724 48.84 345.584 48.56 344.584 48C343.584 47.44 342.844 46.66 342.364 45.66L342.844 44.64C343.324 45.56 343.844 46.22 344.404 46.62C344.964 47.02 345.624 47.22 346.384 47.22C347.624 47.22 348.824 46.74 349.984 45.78C351.184 44.78 352.264 43.46 353.224 41.82C354.224 40.14 355.104 38.28 355.864 36.24C356.624 34.2 357.204 32.12 357.604 30C358.044 27.88 358.264 25.9 358.264 24.06C358.264 22.14 358.064 20.82 357.664 20.1C357.264 19.34 356.704 18.96 355.984 18.96ZM346.204 8.34C347.604 8.22 348.944 8.06 350.224 7.86C351.544 7.62 352.784 7.3 353.944 6.9L340.924 52.8C340.364 54.72 340.524 56 341.404 56.64C342.284 57.28 343.704 57.6 345.664 57.6L345.304 58.86C344.384 58.82 343.104 58.76 341.464 58.68C339.824 58.64 338.104 58.62 336.304 58.62C334.824 58.62 333.324 58.64 331.804 58.68C330.284 58.76 329.164 58.82 328.444 58.86L328.804 57.6C330.244 57.6 331.284 57.32 331.924 56.76C332.564 56.24 333.084 55.28 333.484 53.88L346.204 8.34ZM334.264 26.82C335.784 25.3 337.184 23.78 338.464 22.26C339.784 20.7 341.064 18.88 342.304 16.8C343.544 14.68 344.784 12.02 346.024 8.82L346.204 9.78C345.364 12.54 344.364 14.98 343.204 17.1C342.044 19.18 340.764 21.06 339.364 22.74C338.004 24.42 336.524 26.04 334.924 27.6L334.264 26.82ZM377.478 46.08C378.198 46.08 379.018 45.66 379.938 44.82C380.858 43.94 381.798 42.72 382.758 41.16C383.718 39.6 384.638 37.74 385.518 35.58C386.398 33.42 387.158 31.06 387.798 28.5L386.538 34.98C385.378 38.38 384.138 41.1 382.818 43.14C381.538 45.18 380.178 46.64 378.738 47.52C377.338 48.4 375.878 48.84 374.358 48.84C372.198 48.84 370.598 48.18 369.558 46.86C368.518 45.5 367.998 43.7 367.998 41.46C367.998 39.38 368.338 37.2 369.018 34.92C369.698 32.6 370.638 30.34 371.838 28.14C373.078 25.9 374.478 23.9 376.038 22.14C377.598 20.34 379.258 18.9 381.018 17.82C382.778 16.74 384.538 16.2 386.298 16.2C387.658 16.2 388.698 16.78 389.418 17.94C390.138 19.06 390.318 20.78 389.958 23.1L389.298 23.46C389.578 21.78 389.498 20.46 389.058 19.5C388.658 18.54 387.978 18.06 387.018 18.06C386.098 18.06 385.118 18.54 384.078 19.5C383.078 20.46 382.078 21.76 381.078 23.4C380.078 25.04 379.158 26.9 378.318 28.98C377.518 31.06 376.878 33.22 376.398 35.46C375.918 37.7 375.678 39.88 375.678 42C375.678 43.48 375.818 44.54 376.098 45.18C376.418 45.78 376.878 46.08 377.478 46.08ZM390.978 17.04C392.418 17 393.758 16.92 394.998 16.8C396.278 16.68 397.498 16.48 398.658 16.2L390.918 42.84C390.758 43.32 390.638 43.82 390.558 44.34C390.518 44.82 390.558 45.24 390.678 45.6C390.838 45.92 391.178 46.08 391.698 46.08C392.338 46.08 392.998 45.74 393.678 45.06C394.358 44.38 395.058 43 395.778 40.92L396.678 38.22H397.818L396.318 42.6C395.758 44.24 395.058 45.52 394.218 46.44C393.378 47.32 392.478 47.94 391.518 48.3C390.598 48.66 389.678 48.84 388.758 48.84C386.838 48.84 385.478 48.24 384.678 47.04C384.158 46.16 383.958 45.08 384.078 43.8C384.198 42.52 384.458 41.14 384.858 39.66L390.978 17.04Z" fill="url(#paint0_linear_76_66)"/>
<defs>
<linearGradient id="paint0_linear_76_66" x1="201.5" y1="-17" x2="201.5" y2="63" gradientUnits="userSpaceOnUse">
<stop offset="0.3125" stop-color="#9E333A"/>
<stop offset="0.704861" stop-color="#CC7970" stop-opacity="0.963889"/>
</linearGradient>
</defs>
</svg>
