<svg width="87" height="52" viewBox="0 0 87 52" fill="none" xmlns="http://www.w3.org/2000/svg">
<path d="M37.8293 8.1C37.4293 9.14 36.8893 10.66 36.2093 12.66C35.5693 14.62 34.9293 17.18 34.2893 20.34H33.0893C33.2093 19.78 33.2893 19.2 33.3293 18.6C33.4093 18 33.4493 17.46 33.4493 16.98C33.4493 15.42 33.1293 14.06 32.4893 12.9C31.8893 11.7 30.9493 10.76 29.6693 10.08C28.4293 9.36 26.8293 9 24.8693 9C22.7493 9 20.9493 9.56 19.4693 10.68C17.9893 11.76 17.2493 13.5 17.2493 15.9C17.2493 17.38 17.5893 18.78 18.2693 20.1C18.9893 21.38 19.8893 22.64 20.9693 23.88C22.0893 25.08 23.2693 26.3 24.5093 27.54C25.7493 28.74 26.9093 29.98 27.9893 31.26C29.0693 32.54 29.9493 33.9 30.6293 35.34C31.3493 36.74 31.7093 38.28 31.7093 39.96C31.7093 42.08 31.1893 43.9 30.1493 45.42C29.1493 46.9 27.8493 48.12 26.2493 49.08C24.6493 50 22.9093 50.68 21.0293 51.12C19.1893 51.6 17.3893 51.84 15.6293 51.84C13.8293 51.84 12.3293 51.7 11.1293 51.42C9.9693 51.18 8.9893 50.84 8.1893 50.4C7.3893 49.96 6.6093 49.52 5.8493 49.08C5.4493 48.76 5.0493 48.54 4.6493 48.42C4.2893 48.26 3.9893 48.18 3.7493 48.18C3.2293 48.18 2.7893 48.44 2.4293 48.96C2.1093 49.44 1.7093 50.26 1.2293 51.42H0.0292969C0.389297 50.54 0.769297 49.52 1.1693 48.36C1.5693 47.2 2.0093 45.72 2.4893 43.92C2.9693 42.08 3.5093 39.78 4.1093 37.02H5.3093C5.1493 37.78 5.0093 38.58 4.8893 39.42C4.7693 40.22 4.7293 41.02 4.7693 41.82C4.8893 44.62 5.7493 46.78 7.3493 48.3C8.9893 49.82 11.3893 50.58 14.5493 50.58C17.2293 50.58 19.2493 50.02 20.6093 48.9C21.9693 47.74 22.6493 46.06 22.6493 43.86C22.6493 42.18 22.3293 40.66 21.6893 39.3C21.0893 37.9 20.2893 36.6 19.2893 35.4C18.2893 34.2 17.2293 33.02 16.1093 31.86C14.9893 30.7 13.9293 29.52 12.9293 28.32C11.9293 27.08 11.1093 25.76 10.4693 24.36C9.8293 22.92 9.5093 21.32 9.5093 19.56C9.5093 17.56 9.9293 15.82 10.7693 14.34C11.6493 12.86 12.7693 11.64 14.1293 10.68C15.5293 9.68 17.0693 8.94 18.7493 8.46C20.4293 7.94 22.0893 7.68 23.7293 7.68C25.8893 7.68 27.6693 7.94 29.0693 8.46C30.4693 8.98 31.6693 9.6 32.6693 10.32C33.1093 10.6 33.4893 10.84 33.8093 11.04C34.1693 11.2 34.4493 11.28 34.6493 11.28C35.2093 11.28 35.8693 10.22 36.6293 8.1H37.8293ZM82.7196 0.299998C83.9996 0.299998 84.9796 0.679998 85.6596 1.44C86.3396 2.2 86.6796 3.1 86.6796 4.14C86.6796 5.26 86.3396 6.26 85.6596 7.14C85.0196 8.02 84.1196 8.74 82.9596 9.3C81.8396 9.9 80.4596 10.36 78.8196 10.68C77.1796 11 75.2796 11.16 73.1196 11.16C71.5996 11.16 69.9996 11.08 68.3196 10.92C66.6396 10.76 64.9396 10.58 63.2196 10.38C61.4996 10.18 59.7996 10 58.1196 9.84C56.4396 9.68 54.8596 9.6 53.3796 9.6C52.0596 9.6 50.7796 9.68 49.5396 9.84C48.2996 9.96 47.3196 10.22 46.5996 10.62C47.3996 10.94 48.0596 11.5 48.5796 12.3C49.1396 13.1 49.4196 14.02 49.4196 15.06C49.4196 16.22 49.0396 17.26 48.2796 18.18C47.5596 19.06 46.5596 19.5 45.2796 19.5C44.0796 19.5 43.1596 19.1 42.5196 18.3C41.8796 17.5 41.5596 16.54 41.5596 15.42C41.5596 14.5 41.7996 13.54 42.2796 12.54C42.7996 11.5 43.7796 10.62 45.2196 9.9C46.1396 9.46 47.1196 9.14 48.1596 8.94C49.1996 8.74 50.1796 8.62 51.0996 8.58C52.0196 8.54 52.7396 8.52 53.2596 8.52C55.6996 8.52 58.0596 8.64 60.3396 8.88C62.6196 9.12 64.8596 9.36 67.0596 9.6C69.2596 9.84 71.4396 9.96 73.5996 9.96C75.2796 9.96 76.6796 9.88 77.7996 9.72C78.9596 9.52 79.9796 9.22 80.8596 8.82L80.7396 9.3C80.2196 8.82 79.7196 8.2 79.2396 7.44C78.7996 6.64 78.5796 5.72 78.5796 4.68C78.5796 3.48 78.9396 2.46 79.6596 1.62C80.4196 0.739999 81.4396 0.299998 82.7196 0.299998ZM60.8796 9.66C60.8796 9.66 61.1396 9.68 61.6596 9.72C62.2196 9.76 62.8996 9.82 63.6996 9.9C64.4996 9.98 65.2996 10.06 66.0996 10.14C66.8996 10.22 67.5596 10.28 68.0796 10.32C68.5996 10.36 68.8596 10.38 68.8596 10.38L59.9796 44.04C59.5796 45.52 59.4196 46.66 59.4996 47.46C59.6196 48.26 60.0596 48.84 60.8196 49.2C61.6196 49.52 62.8396 49.72 64.4796 49.8L64.2396 51C63.0396 50.92 61.4996 50.88 59.6196 50.88C57.7796 50.84 55.8596 50.82 53.8596 50.82C51.8996 50.82 50.0196 50.84 48.2196 50.88C46.4196 50.88 44.9796 50.92 43.8996 51L44.1396 49.8C45.8196 49.72 47.1196 49.52 48.0396 49.2C48.9996 48.84 49.7396 48.26 50.2596 47.46C50.8196 46.62 51.3196 45.48 51.7596 44.04L60.8796 9.66Z" fill="url(#paint0_linear_76_31)"/>
<defs>
<linearGradient id="paint0_linear_76_31" x1="39" y1="-14" x2="39" y2="66" gradientUnits="userSpaceOnUse">
<stop offset="0.3125" stop-color="#9E333A"/>
<stop offset="0.704861" stop-color="#CC7970" stop-opacity="0.963889"/>
</linearGradient>
</defs>
</svg>
