<svg width="50" height="86" viewBox="0 0 50 86" fill="none" xmlns="http://www.w3.org/2000/svg">
<path d="M24.0064 1.73795C24.1409 0.555258 25.8591 0.555265 25.9936 1.73796L29.6141 33.5773C29.6847 34.1988 30.3023 34.6036 30.9005 34.4205L48.6222 28.9937C49.6714 28.6724 50.3974 30.0311 49.5471 30.7247L35.3811 42.2812C34.9138 42.6624 34.8877 43.3673 35.3255 43.782L49.5993 57.3046C50.4038 58.0667 49.5558 59.377 48.5311 58.9554L30.9745 51.7311C30.3606 51.4785 29.6754 51.8833 29.6004 52.5429L25.9936 84.2621C25.8591 85.4447 24.1409 85.4447 24.0064 84.262L20.4008 52.5533C20.3254 51.8905 19.6346 51.4859 19.0197 51.7444L1.87502 58.9509C0.856511 59.379 -0.0016892 58.0827 0.79017 57.3123L14.7064 43.7721C15.131 43.359 15.1054 42.6694 14.6513 42.2889L0.838241 30.7158C0.000138055 30.0136 0.735475 28.6685 1.779 28.9949L19.0946 34.4114C19.694 34.5988 20.3158 34.1939 20.3868 33.5699L24.0064 1.73795Z" fill="url(#paint0_linear_75_3)"/>
<defs>
<linearGradient id="paint0_linear_75_3" x1="25" y1="-7" x2="25" y2="93" gradientUnits="userSpaceOnUse">
<stop stop-color="#BD444C"/>
<stop offset="1" stop-color="#E0C460" stop-opacity="0.75"/>
</linearGradient>
</defs>
</svg>
