<svg width="469" height="281" viewBox="0 0 469 281" fill="none" xmlns="http://www.w3.org/2000/svg">
<path d="M444.515 219.667C441.637 227.281 433.358 232.798 420.09 235.934C406.883 239.056 389.126 239.714 368.013 237.949C325.81 234.422 270.551 221.243 212.27 199.219C153.99 177.194 103.826 150.533 69.837 125.267C52.834 112.628 39.95 100.391 32.1087 89.315C24.2306 78.1874 21.6697 68.5734 24.547 60.9596C27.4242 53.3458 35.7034 47.8283 48.9719 44.6921C62.1784 41.5705 79.9357 40.9123 101.048 42.6771C143.252 46.2051 198.511 59.3835 256.791 81.408C315.072 103.433 365.236 130.094 399.225 155.359C416.228 167.998 429.112 180.236 436.953 191.312C444.831 202.439 447.392 212.053 444.515 219.667Z" stroke="white" stroke-width="3"/>
<path d="M160.556 29.4871L140.915 48.8546L148.312 60.7336L138.239 51.1104L115.444 67.513L135.468 47.8232L127.688 36.2665L138.144 45.5675L160.556 29.4871Z" fill="white"/>
<path d="M396.423 219.234L376.782 238.601L384.18 250.48L374.106 240.857L351.312 257.259L371.335 237.57L363.556 226.013L374.012 235.314L396.423 219.234Z" fill="white"/>
</svg>
